Coordinates
version=1
nRows=16
nColumns=36
inDegrees=yes

Units are S.I. units (second, meters, Newtons, ...)
If the header above contains a line with 'inDegrees', this indicates whether rotational values are in degrees (yes) or radians (no).

endheader
time	pelvis_tilt	pelvis_list	pelvis_rotation	pelvis_tx	pelvis_ty	pelvis_tz	hip_flexion_r	hip_adduction_r	hip_rotation_r	knee_angle_r	knee_angle_r_beta	ankle_angle_r	subtalar_angle_r	mtp_angle_r	hip_flexion_l	hip_adduction_l	hip_rotation_l	knee_angle_l	knee_angle_l_beta	ankle_angle_l	subtalar_angle_l	mtp_angle_l	lumbar_extension	lumbar_bending	lumbar_rotation	arm_flex_r	arm_add_r	arm_rot_r	elbow_flex_r	pro_sup_r	arm_flex_l	arm_add_l	arm_rot_l	elbow_flex_l	pro_sup_l
      5.15000000	     -3.13501859	      0.42391856	      2.70307137	      0.71850152	      0.96657697	     -0.10404647	      3.97469841	     -5.97481444	     -3.54548297	      5.10523621	      0.08910318	     10.52786463	      9.67293887	     -7.49999987	      4.22665356	      0.58730621	      1.89047033	      8.42275768	      0.14700485	     13.00054384	      8.92770200	     -7.49999987	      5.51094783	     -0.48213619	      1.69502713	    -68.37073598	      3.47005497	    -67.07533169	     53.50636507	     51.10868939	    -46.93271624	     -4.15753323	    148.86735861	     32.27960767	     26.69630705
      5.16666670	     -3.17055705	      0.53674332	      2.55116287	      0.71530593	      0.97447156	     -0.10454205	      4.18382601	     -6.14037297	     -3.89313739	      4.94167992	      0.08624859	     10.04648732	     10.85247374	     -7.49999987	      4.21618026	      0.73778943	      1.73678830	      8.07331090	      0.14090586	     12.39669033	      8.83572207	     -7.49999987	      5.10424229	     -0.46795009	      1.75497083	    -66.47288536	      2.49698033	    -67.27923717	     51.16510984	     51.12669676	    -45.26727015	     -4.85110105	    149.59995273	     31.20305241	     27.48110362
      5.18333330	     -3.14959243	      0.61994161	      2.32918965	      0.71602960	      0.96935544	     -0.10348637	      4.32626300	     -6.21895593	     -3.26170681	      4.98112784	      0.08693708	      9.68051792	     10.53039313	     -7.49999987	      4.22957244	      0.79947906	      1.24947534	      8.03112237	      0.14016953	     12.15136558	      9.02465937	     -7.49999987	      4.94740558	     -0.52732394	      1.87260087	    -65.30858904	      1.51974710	    -66.60816847	     47.56520543	     47.09326621	    -43.90368145	     -4.88587900	    154.33253771	     29.36287075	     23.08061552
      5.20000000	     -3.12595628	      0.69987939	      2.00305126	      0.71426861	      0.96909665	     -0.10057764	      4.50472201	     -6.24867346	     -3.14771270	      4.95559996	      0.08649154	      9.35613204	     10.97127710	     -7.49999987	      4.21101635	      0.79094437	      0.86789871	      8.00810781	      0.13976785	     12.13697697	      9.36043736	     -7.49999987	      4.58890437	     -0.52311000	      1.10797005	    -64.04159486	      0.25497391	    -65.98569344	     46.94270801	     47.10337097	    -43.02513004	     -5.05490262	    154.82798356	     26.76585521	     23.27255212
      5.21666670	     -3.00915135	      0.77501677	      1.72164063	      0.71369722	      0.96945529	     -0.10020627	      4.56133129	     -6.29576045	     -2.89989519	      5.02368899	      0.08767991	      9.11313609	     11.13602306	     -7.49999987	      4.11243619	      0.79179702	      0.53172027	      7.97148545	      0.13912867	     12.01798849	      9.32260950	     -7.49999987	      4.12004489	     -0.54721899	      0.71446061	    -62.07101786	     -0.43456687	    -66.34523270	     44.04269484	     46.48235565	    -41.69054795	     -5.18559092	    157.06062509	     23.91147620	     22.81931737
      5.23333330	     -2.94801369	      0.90436996	      1.35588217	      0.71257546	      0.96694625	     -0.09961110	      4.68700670	     -6.38967171	     -2.59984049	      5.18894006	      0.09056409	      9.09179065	     11.26874706	     -7.49999987	      4.10933422	      0.87163077	      0.14520709	      7.99477457	      0.13953514	     12.09797529	      9.39323762	     -7.49999987	      3.53576358	     -0.49640769	      0.73946941	    -59.69465370	     -0.77972198	    -66.59262733	     45.33408006	     47.19715106	    -40.02943972	     -5.77004041	    156.27770026	     18.57107137	     23.11289284
      5.25000000	     -2.87543220	      1.01488077	      1.18939242	      0.71216793	      0.96683148	     -0.09946251	      4.71977232	     -6.49301451	     -2.30044136	      5.24796753	      0.09159431	      9.24650177	     11.21874628	     -7.49999987	      4.10067789	      0.94600011	     -0.08186833	      8.01182731	      0.13983277	     12.19894331	      9.39357125	     -7.49999987	      2.94148307	     -0.50472176	      0.13293550	    -56.41261844	     -2.24274568	    -63.96539102	     44.43653070	     47.94768701	    -39.12512253	     -7.15489925	    143.10829997	     14.13768854	     14.23039008
      5.26666670	     -2.92789362	      1.01290003	      1.15892316	      0.71030498	      0.96103513	     -0.09950595	      4.92140968	     -6.52611101	     -2.01779250	      5.43961336	      0.09493916	      9.74081703	     10.77816926	     -7.49999987	      4.27728383	      0.92242215	     -0.25895447	      8.21640625	      0.14340334	     12.79620543	      9.40609399	     -7.49999987	      1.94469795	     -1.26894487	     -0.19372579	    -51.54633466	     -4.27502937	    -61.33797188	     39.91560602	     52.51954543	    -40.80436500	     -3.04135792	    -14.03151146	      4.96531243	     93.29917592
      5.28333330	     -3.02009533	      1.06425704	      1.18196531	      0.71159086	      0.96078187	     -0.09738695	      5.04065504	     -6.53580933	     -1.83057066	      5.58918139	      0.09754962	     10.19896537	     10.48772497	     -7.49999987	      4.42747942	      0.90185641	     -0.39346465	      8.36836815	      0.14605558	     13.11124598	      9.43582190	     -7.49999987	      1.21880426	     -1.37192924	     -0.83017637	    -45.55456500	     -6.57145815	    -55.23343514	     34.04894949	     57.26089588	    -35.45111101	     -3.66023463	    -19.66961980	      6.22557092	     84.23630722
      5.30000000	     -3.13448236	      1.05425801	      1.04349655	      0.70627937	      0.95864513	     -0.09747957	      5.34878234	     -6.50715848	     -1.57737608	      5.72614935	      0.09994016	     10.59093904	     10.25533661	     -7.49999987	      4.82316533	      0.84370976	     -0.62458484	      8.69856836	      0.15181866	     13.47478948	      9.36261624	     -7.49999987	      0.48317157	     -1.30361877	     -1.40594914	    -38.24486669	     -8.86953410	    -47.41722648	     28.46602285	     61.28962032	    -29.13864238	     -4.53792100	    -23.38612776	      8.18855724	     81.02992255
      5.31666670	     -3.10414148	      1.07021506	      1.07061933	      0.70250204	      0.95715968	     -0.09709720	      5.47887372	     -6.47989702	     -1.28900958	      5.75609926	      0.10046288	     10.77527051	     10.00694748	     -7.49999987	      5.12652311	      0.82748475	     -0.62029675	      9.00339028	      0.15713880	     13.67688161	      9.21436981	     -7.49999987	      0.00139898	     -1.50870324	     -1.89491248	    -31.22123943	     -9.97072421	    -39.80457239	     24.72188211	     66.28767069	    -23.88549041	     -5.16705448	    -25.38926442	     10.39099662	     77.73294825
      5.33333330	     -2.96693203	      1.07978878	      1.12192647	      0.70070626	      0.96084765	     -0.09710802	      5.46605754	     -6.45550982	     -0.99654290	      5.73345100	      0.10006760	     10.73398538	      9.57864204	     -7.49999987	      5.30569038	      0.81023699	     -0.55272306	      9.26782710	      0.16175410	     13.62744793	      9.05158983	     -7.49999987	     -0.46251932	     -1.43981639	     -1.38780867	    -26.14417337	     -9.11775416	    -37.54111322	     24.74778496	     66.02725975	    -17.60704347	     -6.10341709	    -24.40929284	     12.42362666	     75.43005347
      5.35000000	     -2.78207499	      1.06149985	      1.28386099	      0.70390504	      0.96123908	     -0.09768522	      5.23061141	     -6.45921922	     -1.12475780	      5.74047997	      0.10019028	     10.38093648	      9.50644201	     -7.49999987	      5.33932873	      0.73268396	     -0.74676241	      9.51608330	      0.16608699	     13.50513963	      9.37049007	     -7.49999987	     -0.68660317	     -1.88673404	     -2.80608639	    -19.89060552	     -9.86436487	    -27.63586785	     21.47369411	     72.43643377	    -14.48980746	     -6.22668722	    -21.57568901	     15.78127407	     75.78528643
      5.36666670	     -2.46891853	      1.00938417	      1.48669492	      0.70475215	      0.95456660	     -0.09933247	      4.79631119	     -6.43794915	     -1.34098112	      5.61990384	      0.09808583	     10.41769070	      9.15339571	     -7.49999987	      5.07472404	      0.65419132	     -0.96370312	      9.74150001	      0.17002125	     14.00522256	      9.77688501	     -7.49999987	     -1.04681643	     -1.93870600	     -3.14603432	    -15.96309182	     -9.33508924	    -24.01635400	     21.77259739	     75.36553302	    -11.30775117	     -6.21463377	    -18.94022528	     18.49684393	     74.94430412
      5.38333330	     -2.22446724	      0.97235107	      1.57778470	      0.70276245	      0.95546530	     -0.09854671	      4.40266840	     -6.43056965	     -1.57339298	      5.33947653	      0.09319145	     10.20862569	      9.11766788	     -7.49999987	      4.85138350	      0.61854639	     -1.08792607	      9.73684630	      0.16994003	     14.31773094	      9.92488688	     -7.49999987	     -1.32068100	     -1.95106044	     -3.36500077	    -11.48486219	     -8.34324061	    -20.64863020	     22.15360865	     78.18464400	     -7.80006324	     -6.06631453	    -16.83861903	     22.19977722	     75.65470401
      5.40000000	     -2.01375668	      0.92855414	      1.72637159	      0.70092626	      0.95115388	     -0.09849284	      4.19260038	     -6.38952167	     -1.54166353	      5.21347775	      0.09099235	     10.14215498	      8.86174750	     -7.49999987	      4.75289396	      0.58072818	     -1.16865205	      9.85162242	      0.17194325	     14.61792524	      9.83508015	     -7.49999987	     -1.60813920	     -1.95588137	     -3.44129373	     -7.51090854	     -7.08750466	    -17.65870189	     23.12372533	     79.85328488	     -4.28572628	     -5.94153377	    -15.17449277	     26.36249818	     76.33881021
